<svg xmlns="http://www.w3.org/2000/svg" viewBox="0 0 320 205"><title>Схематичный чертёж изделия</title><style>path{vector-effect:non-scaling-stroke}.dim{stroke:#a66b45;stroke-width:.7}text{fill:#c69068;font:9px Arial;stroke:none}</style><g fill="none" stroke="#c4cdb6" stroke-width="1" stroke-linecap="round" stroke-linejoin="round"><path d="M36 141V79L84 44L134 73V151 M36 83L84 52L134 79 M36 141h-7v5h14v-5 M134 151h-7v5h14v-5"/><path d="M93 123V61L141 26L191 55V133 M93 65L141 34L191 61 M93 123h-7v5h14v-5 M191 133h-7v5h14v-5"/><path d="M150 105V43L198 8L248 37V115 M150 47L198 16L248 43 M150 105h-7v5h14v-5 M248 115h-7v5h14v-5"/><path d="M36 79 150 43 M84 44 198 8 M134 73 248 37 M134 151 248 115 M36 141 150 105 M134 73 191 133 248 37 M134 151 191 55 248 115 M36 79 93 123 150 43 M57 64 171 28 M109 58 223 22"/><path class="dim" d="M26 157 133 169 258 129 M26 153v9m107 3v9m125-49v9"/><text x="68" y="175">B</text><text x="196" y="160">L</text></g></svg>
